<svg xmlns="http://www.w3.org/2000/svg" width="50" height="48.35" viewBox="0 0 50 48.35"><g transform="translate(-358 -37.65)"><path d="M42.206,30.046h0L30.071,19.428,42.206,8.81h0a1.081,1.081,0,0,0,.286-.39,1,1,0,0,0-.286-1.156L36.473,2.248A1.381,1.381,0,0,0,35.152,2a1.276,1.276,0,0,0-.446.25h0L22.571,12.866,10.436,2.248h0A1.275,1.275,0,0,0,9.99,2a1.381,1.381,0,0,0-1.321.25L2.936,7.263A1,1,0,0,0,2.65,8.42a1.082,1.082,0,0,0,.286.39h0L15.071,19.428,2.936,30.046h0a1.084,1.084,0,0,0-.286.39,1,1,0,0,0,.286,1.156l5.732,5.016a1.381,1.381,0,0,0,1.321.25,1.276,1.276,0,0,0,.446-.25h0L22.571,25.991,34.706,36.609h0a1.276,1.276,0,0,0,.446.25,1.381,1.381,0,0,0,1.321-.25l5.732-5.016a1,1,0,0,0,.286-1.156,1.082,1.082,0,0,0-.286-.39Z" transform="translate(360.43 35.722)"/><text transform="translate(358 73)" fill="#23272a" font-size="10" font-family="Pelago-Semibold, Pelago" font-weight="600"><tspan x="0" y="10">LUK MENU</tspan></text></g></svg>