<svg xmlns="http://www.w3.org/2000/svg" width="40" height="48" viewBox="0 0 40 48"><defs><style>.a,.b{fill:#23272a;}.b{font-size:10px;font-family:Pelago-Medium, Pelago;font-weight:500;}</style></defs><path class="a" d="M1.429,10.647H38.571A1.429,1.429,0,0,0,40,9.219V5.647a1.429,1.429,0,0,0-1.429-1.429H1.429A1.429,1.429,0,0,0,0,5.647V9.219A1.429,1.429,0,0,0,1.429,10.647Zm0,14.286H38.571A1.429,1.429,0,0,0,40,23.5V19.933A1.429,1.429,0,0,0,38.571,18.5H1.429A1.429,1.429,0,0,0,0,19.933V23.5A1.429,1.429,0,0,0,1.429,24.933Zm0,14.286H38.571A1.429,1.429,0,0,0,40,37.79V34.219a1.429,1.429,0,0,0-1.429-1.429H1.429A1.429,1.429,0,0,0,0,34.219V37.79A1.429,1.429,0,0,0,1.429,39.219Z" transform="translate(0 -4.219)"/><text class="b" transform="translate(5 35)"><tspan x="0.17" y="10">MENU</tspan></text></svg>